<svg xmlns="http://www.w3.org/2000/svg" xmlns:xlink="http://www.w3.org/1999/xlink" preserveAspectRatio="xMidYMid" width="20" height="24" viewBox="0 0 20 24">

  <path d="M17.685,9.504 C17.062,10.407 16.750,11.401 16.750,12.487 C16.750,13.679 17.081,14.750 17.742,15.701 C18.404,16.653 19.160,17.258 20.013,17.518 C19.640,18.719 19.050,19.920 18.245,21.121 C17.009,23.005 15.777,23.946 14.550,23.946 C14.081,23.946 13.410,23.793 12.538,23.485 C11.713,23.178 10.990,23.024 10.367,23.024 C9.782,23.024 9.101,23.183 8.325,23.500 C7.549,23.827 6.916,23.990 6.427,23.990 C4.970,23.990 3.528,22.745 2.100,20.257 C0.691,17.748 -0.014,15.332 -0.014,13.007 C-0.014,10.816 0.528,9.019 1.611,7.616 C2.684,6.232 4.045,5.540 5.694,5.540 C6.384,5.540 7.232,5.684 8.239,5.972 C9.236,6.261 9.897,6.405 10.223,6.405 C10.654,6.405 11.339,6.242 12.279,5.915 C13.256,5.588 14.085,5.425 14.766,5.425 C15.907,5.425 16.927,5.737 17.828,6.362 C18.327,6.708 18.825,7.188 19.324,7.803 C18.566,8.447 18.020,9.013 17.685,9.504 ZM12.854,4.560 C12.336,5.079 11.819,5.425 11.301,5.598 C10.946,5.704 10.448,5.785 9.806,5.843 C9.834,4.411 10.208,3.176 10.927,2.139 C11.637,1.110 12.835,0.400 14.521,0.005 C14.531,0.034 14.543,0.087 14.557,0.164 C14.572,0.240 14.584,0.293 14.593,0.323 C14.593,0.361 14.596,0.409 14.600,0.466 C14.605,0.524 14.608,0.572 14.608,0.610 C14.608,1.197 14.469,1.850 14.191,2.571 C13.903,3.291 13.457,3.954 12.854,4.560 Z" class="cls-1"/>
</svg>
