<svg xmlns="http://www.w3.org/2000/svg" xmlns:xlink="http://www.w3.org/1999/xlink" preserveAspectRatio="xMidYMid" width="24.97" height="22" viewBox="0 0 24.97 22">
  <defs>
    
  </defs>
  <path d="M19.339,5.906 C16.119,5.906 13.693,4.638 13.693,2.953 C13.693,1.268 16.119,-0.000 19.339,-0.000 C22.560,-0.000 24.986,1.268 24.986,2.953 C24.986,4.638 22.560,5.906 19.339,5.906 ZM19.339,1.268 C16.654,1.268 14.940,2.269 14.940,2.958 C14.940,3.648 16.654,4.648 19.339,4.648 C22.025,4.648 23.739,3.648 23.739,2.958 C23.739,2.269 22.025,1.268 19.339,1.268 ZM5.647,12.345 C2.427,12.345 0.001,11.076 0.001,9.392 C0.001,7.707 2.427,6.438 5.647,6.438 C8.868,6.438 11.294,7.707 11.294,9.392 C11.294,11.076 8.868,12.345 5.647,12.345 ZM5.647,7.701 C2.962,7.701 1.248,8.702 1.248,9.392 C1.248,10.081 2.962,11.081 5.647,11.081 C8.333,11.081 10.047,10.081 10.047,9.392 C10.047,8.702 8.333,7.701 5.647,7.701 ZM0.469,12.524 C0.780,12.376 1.154,12.513 1.300,12.829 C1.632,13.550 3.351,14.298 5.647,14.298 C8.006,14.298 9.751,13.508 10.016,12.776 C10.135,12.450 10.494,12.282 10.816,12.403 C11.138,12.524 11.304,12.887 11.190,13.208 C10.930,13.929 10.218,14.535 9.138,14.961 C8.156,15.351 6.920,15.561 5.647,15.561 C2.977,15.561 0.775,14.682 0.167,13.366 C0.022,13.050 0.157,12.671 0.469,12.524 ZM0.469,15.746 C0.780,15.598 1.154,15.735 1.300,16.051 C1.632,16.772 3.351,17.520 5.647,17.520 C8.006,17.520 9.751,16.730 10.016,15.998 C10.135,15.672 10.494,15.504 10.816,15.625 C11.138,15.740 11.304,16.104 11.190,16.430 C10.930,17.151 10.218,17.756 9.138,18.183 C8.156,18.573 6.920,18.783 5.647,18.783 C2.977,18.783 0.775,17.904 0.167,16.588 C0.022,16.272 0.157,15.893 0.469,15.746 ZM0.469,18.962 C0.780,18.815 1.154,18.951 1.300,19.268 C1.632,19.989 3.351,20.736 5.647,20.736 C8.006,20.736 9.751,19.947 10.016,19.215 C10.135,18.888 10.494,18.720 10.816,18.841 C11.138,18.962 11.304,19.325 11.190,19.646 C10.930,20.368 10.218,20.973 9.138,21.400 C8.156,21.789 6.920,22.000 5.647,22.000 C2.977,22.000 0.775,21.120 0.167,19.804 C0.022,19.488 0.157,19.110 0.469,18.962 ZM14.166,6.086 C14.478,5.938 14.852,6.075 14.997,6.391 C15.330,7.112 17.049,7.859 19.345,7.859 C21.703,7.859 23.448,7.070 23.713,6.338 C23.832,6.011 24.191,5.843 24.513,5.964 C24.835,6.086 25.001,6.449 24.887,6.770 C24.627,7.491 23.916,8.096 22.835,8.523 C21.853,8.913 20.617,9.123 19.345,9.123 C16.675,9.123 14.472,8.244 13.865,6.928 C13.719,6.612 13.854,6.233 14.166,6.086 ZM14.166,9.307 C14.478,9.160 14.852,9.297 14.997,9.612 C15.330,10.334 17.049,11.081 19.345,11.081 C21.703,11.081 23.448,10.292 23.713,9.560 C23.832,9.234 24.191,9.065 24.513,9.186 C24.835,9.307 25.001,9.670 24.887,9.992 C24.627,10.713 23.916,11.318 22.835,11.745 C21.853,12.134 20.617,12.345 19.345,12.345 C16.675,12.345 14.472,11.465 13.865,10.149 C13.719,9.834 13.854,9.455 14.166,9.307 ZM14.166,12.524 C14.478,12.376 14.852,12.513 14.997,12.829 C15.330,13.550 17.049,14.298 19.345,14.298 C21.703,14.298 23.448,13.508 23.713,12.776 C23.832,12.450 24.191,12.282 24.513,12.403 C24.835,12.524 25.001,12.887 24.887,13.208 C24.627,13.929 23.916,14.535 22.835,14.961 C21.853,15.351 20.617,15.561 19.345,15.561 C16.675,15.561 14.472,14.682 13.865,13.366 C13.719,13.050 13.854,12.671 14.166,12.524 ZM14.166,15.746 C14.478,15.598 14.852,15.735 14.997,16.051 C15.330,16.772 17.049,17.520 19.345,17.520 C21.703,17.520 23.448,16.730 23.713,15.998 C23.832,15.672 24.191,15.504 24.513,15.625 C24.835,15.740 25.001,16.104 24.887,16.430 C24.627,17.151 23.916,17.756 22.835,18.183 C21.853,18.573 20.617,18.783 19.345,18.783 C16.675,18.783 14.472,17.904 13.865,16.588 C13.719,16.272 13.854,15.893 14.166,15.746 ZM14.166,18.962 C14.478,18.815 14.852,18.951 14.997,19.268 C15.330,19.989 17.049,20.736 19.345,20.736 C21.703,20.736 23.448,19.947 23.713,19.215 C23.832,18.888 24.191,18.720 24.513,18.841 C24.835,18.962 25.001,19.325 24.887,19.646 C24.627,20.368 23.916,20.973 22.835,21.400 C21.853,21.789 20.617,22.000 19.345,22.000 C16.675,22.000 14.472,21.120 13.865,19.804 C13.719,19.488 13.854,19.110 14.166,18.962 Z" class="cls-1"/>
</svg>
