<svg xmlns="http://www.w3.org/2000/svg" xmlns:xlink="http://www.w3.org/1999/xlink" preserveAspectRatio="xMidYMid" width="23" height="25" viewBox="0 0 23 25">
  <defs>
    
  </defs>
  <path d="M22.989,5.886 C22.989,5.791 22.968,5.696 22.926,5.606 C22.842,5.427 22.678,5.305 22.499,5.268 L11.758,0.053 C11.584,-0.031 11.379,-0.031 11.205,0.053 L0.358,5.316 C0.148,5.416 0.011,5.627 -0.000,5.865 L-0.000,5.870 C-0.000,5.875 -0.000,5.881 -0.000,5.891 L-0.000,19.098 C-0.000,19.341 0.137,19.563 0.358,19.668 L11.205,24.931 C11.210,24.931 11.210,24.931 11.215,24.936 C11.231,24.941 11.247,24.947 11.263,24.958 C11.268,24.958 11.273,24.963 11.284,24.963 C11.300,24.968 11.315,24.973 11.331,24.979 C11.336,24.979 11.342,24.984 11.347,24.984 C11.363,24.989 11.384,24.989 11.400,24.994 C11.405,24.994 11.410,24.994 11.416,24.994 C11.437,24.994 11.463,24.999 11.484,24.999 C11.505,24.999 11.532,24.999 11.553,24.994 C11.558,24.994 11.563,24.994 11.569,24.994 C11.584,24.994 11.605,24.989 11.621,24.984 C11.627,24.984 11.632,24.979 11.637,24.979 C11.653,24.973 11.669,24.968 11.684,24.963 C11.690,24.963 11.695,24.958 11.706,24.958 C11.721,24.952 11.737,24.947 11.753,24.936 C11.758,24.936 11.758,24.936 11.764,24.931 L22.641,19.652 C22.858,19.547 23.000,19.325 23.000,19.082 L23.000,5.902 C22.989,5.896 22.989,5.891 22.989,5.886 ZM11.479,1.325 L20.885,5.891 L17.421,7.575 L8.015,3.009 L11.479,1.325 ZM11.479,10.457 L2.072,5.891 L6.565,3.711 L15.971,8.277 L11.479,10.457 ZM1.265,6.910 L10.846,11.560 L10.846,23.348 L1.265,18.697 L1.265,6.910 ZM12.112,23.348 L12.112,11.560 L16.609,9.375 L16.609,12.457 C16.609,12.806 16.894,13.091 17.242,13.091 C17.590,13.091 17.875,12.806 17.875,12.457 L17.875,8.757 L21.724,6.888 L21.724,18.676 L12.112,23.348 Z" class="cls-1"/>
</svg>
