<svg xmlns="http://www.w3.org/2000/svg" xmlns:xlink="http://www.w3.org/1999/xlink" preserveAspectRatio="xMidYMid" width="42" height="40" viewBox="0 0 42 40">
  <defs>
    
  </defs>
  <path d="M39.354,21.573 C39.247,22.183 38.735,22.636 38.123,22.666 L14.677,23.738 L15.447,26.666 L35.440,26.666 C36.165,26.666 36.753,27.263 36.753,28.000 C36.753,28.735 36.165,29.333 35.440,29.333 L14.439,29.333 C13.843,29.333 13.323,28.927 13.171,28.343 L6.421,2.666 L1.313,2.666 C0.588,2.666 -0.000,2.069 -0.000,1.332 C-0.000,0.597 0.588,-0.001 1.313,-0.001 L7.429,-0.001 C8.025,-0.001 8.545,0.405 8.697,0.988 L9.839,5.333 L40.691,5.333 C41.079,5.333 41.449,5.509 41.696,5.813 C41.945,6.117 42.051,6.517 41.980,6.906 L39.354,21.573 ZM10.540,7.999 L13.982,21.101 L36.963,20.050 L39.118,7.999 L10.540,7.999 ZM32.815,18.666 C32.090,18.666 31.502,18.069 31.502,17.333 L31.502,11.999 C31.502,11.264 32.090,10.666 32.815,10.666 C33.540,10.666 34.128,11.264 34.128,11.999 L34.128,17.333 C34.128,18.069 33.540,18.666 32.815,18.666 ZM24.939,18.666 C24.215,18.666 23.627,18.069 23.627,17.333 L23.627,11.999 C23.627,11.264 24.215,10.666 24.939,10.666 C25.664,10.666 26.252,11.264 26.252,11.999 L26.252,17.333 C26.252,18.069 25.664,18.666 24.939,18.666 ZM17.064,18.666 C16.339,18.666 15.751,18.069 15.751,17.333 L15.751,11.999 C15.751,11.264 16.339,10.666 17.064,10.666 C17.788,10.666 18.376,11.264 18.376,11.999 L18.376,17.333 C18.376,18.069 17.788,18.666 17.064,18.666 ZM17.064,31.999 C19.235,31.999 21.002,33.794 21.002,35.999 C21.002,38.205 19.235,40.000 17.064,40.000 C14.893,40.000 13.126,38.205 13.126,35.999 C13.126,33.794 14.893,31.999 17.064,31.999 ZM17.064,37.333 C17.788,37.333 18.376,36.735 18.376,35.999 C18.376,35.263 17.788,34.666 17.064,34.666 C16.339,34.666 15.751,35.263 15.751,35.999 C15.751,36.735 16.339,37.333 17.064,37.333 ZM32.815,31.999 C34.986,31.999 36.753,33.794 36.753,35.999 C36.753,38.205 34.986,40.000 32.815,40.000 C30.644,40.000 28.877,38.205 28.877,35.999 C28.877,33.794 30.644,31.999 32.815,31.999 ZM32.815,37.333 C33.540,37.333 34.128,36.735 34.128,35.999 C34.128,35.263 33.540,34.666 32.815,34.666 C32.090,34.666 31.502,35.263 31.502,35.999 C31.502,36.735 32.090,37.333 32.815,37.333 Z" class="cls-1"/>
</svg>
