<svg xmlns="http://www.w3.org/2000/svg" xmlns:xlink="http://www.w3.org/1999/xlink" preserveAspectRatio="xMidYMid" width="29" height="39" viewBox="0 0 29 39">
  <defs>
    
  </defs>
  <path d="M27.710,38.999 L1.290,38.999 C0.577,38.999 -0.000,38.429 -0.000,37.728 L-0.000,18.272 C-0.000,17.569 0.577,17.000 1.290,17.000 L4.295,17.000 L4.295,10.058 C4.295,4.511 8.873,-0.001 14.500,-0.001 C20.127,-0.001 24.705,4.511 24.705,10.058 L24.705,17.000 L27.710,17.000 C28.422,17.000 29.000,17.569 29.000,18.272 L29.000,37.728 C29.000,38.430 28.422,38.999 27.710,38.999 ZM22.124,10.058 C22.124,5.914 18.704,2.543 14.500,2.543 C10.296,2.543 6.876,5.914 6.876,10.058 L6.876,17.000 L22.124,17.000 L22.124,10.058 ZM26.419,19.543 L2.580,19.543 L2.580,36.456 L26.419,36.456 L26.419,19.543 ZM14.500,21.559 C16.903,21.559 18.857,23.485 18.857,25.854 C18.857,27.780 17.565,29.413 15.790,29.957 L15.790,33.169 C15.790,33.871 15.212,34.440 14.500,34.440 C13.787,34.440 13.210,33.871 13.210,33.169 L13.210,29.957 C11.435,29.413 10.142,27.780 10.142,25.854 C10.142,23.485 12.097,21.559 14.500,21.559 ZM14.500,27.606 C15.480,27.606 16.277,26.820 16.277,25.854 C16.277,24.888 15.480,24.102 14.500,24.102 C13.520,24.102 12.722,24.888 12.722,25.854 C12.722,26.820 13.520,27.606 14.500,27.606 Z" class="cls-1"/>
</svg>
