<?xml version="1.0" encoding="UTF-8"?>
<!DOCTYPE svg PUBLIC "-//W3C//DTD SVG 1.1//EN" "http://www.w3.org/Graphics/SVG/1.1/DTD/svg11.dtd">
<!-- Creator: CorelDRAW X7 -->
<svg xmlns="http://www.w3.org/2000/svg" xml:space="preserve" width="75.7174mm" height="51.267mm" version="1.1" style="shape-rendering:geometricPrecision; text-rendering:geometricPrecision; image-rendering:optimizeQuality; fill-rule:evenodd; clip-rule:evenodd"
viewBox="0 0 1362 922"
 xmlns:xlink="http://www.w3.org/1999/xlink">
 <defs>
  <style type="text/css">
   <![CDATA[
    .fil3 {fill:#28AA14}
    .fil0 {fill:#B3B3B3}
    .fil2 {fill:#FF2828}
    .fil1 {fill:white}
   ]]>
  </style>
 </defs>
 <g id="Слой_x0020_1">
  <metadata id="CorelCorpID_0Corel-Layer"/>
  <g id="_756777552">
   <g>
    <path class="fil0" d="M718 143c78,-137 253,-183 389,-105 45,26 80,62 104,104l-249 143 249 144c-79,135 -253,181 -389,103 -136,-79 -183,-253 -104,-389zm484 288l-253 -146 253 -146c-24,-39 -58,-72 -98,-95 -64,-37 -140,-47 -212,-28 -71,19 -132,66 -169,130 -37,64 -47,140 -28,211 20,72 66,132 130,169 64,37 140,47 212,28 69,-18 127,-62 165,-123z"/>
    <path class="fil1" d="M1202 431l-253 -146 253 -146c-24,-39 -58,-72 -98,-95 -64,-37 -140,-47 -212,-28 -71,19 -132,66 -169,130 -37,64 -47,140 -28,211 20,72 66,132 130,169 64,37 140,47 212,28 69,-18 127,-62 165,-123z"/>
    <path class="fil2" d="M1153 113c11,12 20,25 28,38l-92 53c17,-29 37,-59 64,-91zm28 306c-54,89 -155,132 -253,118 57,-68 79,-134 104,-204l149 86z"/>
    <path class="fil3" d="M744 158c54,-94 158,-140 259,-125 -117,147 -90,267 -226,425 -74,-80 -90,-201 -33,-300z"/>
    <path class="fil0" d="M1302 141c50,86 54,195 1,287 -1,0 -1,1 -1,1l-250 -144 250 -144zm-2 9l-235 135 234 135c47,-84 47,-186 1,-270z"/>
    <path class="fil1" d="M1300 150l-235 135 234 135c47,-84 47,-186 1,-270z"/>
    <circle class="fil2" cx="1239" cy="285" r="44"/>
   </g>
   <path class="fil2" d="M78 325l0 231 -78 0 0 -513 128 0c6,0 13,0 20,0 8,1 15,1 22,1 19,1 38,5 56,11 19,6 34,16 47,31 10,12 17,25 23,41 5,15 8,31 9,47 0,2 0,3 0,5 0,1 0,2 0,3 0,10 -1,19 -2,28 -1,10 -3,19 -6,28 -13,40 -35,64 -67,74 -32,10 -66,15 -101,15 -4,0 -9,-1 -13,-1 -4,0 -8,0 -12,0 -5,0 -9,0 -14,-1 -4,0 -8,0 -12,0zm5 -210l0 143c3,0 5,0 8,0 2,0 5,1 8,1 3,0 6,0 9,0 3,0 6,0 9,0 3,0 7,0 10,0 4,0 7,0 11,0 20,-2 38,-7 55,-15 17,-9 26,-26 28,-49l0 -7c0,-29 -10,-48 -30,-58 -20,-9 -41,-14 -65,-15 -3,0 -6,0 -9,0 -3,0 -6,0 -8,0l-26 0zm331 212l0 229 -78 0 0 -513 116 0c5,0 10,0 15,0 5,0 10,0 16,1 19,0 38,3 56,7 19,5 35,14 50,28 12,13 21,27 28,42 7,16 10,32 11,48 1,2 1,5 1,7 0,3 0,5 0,8 0,42 -9,74 -29,96 -19,21 -48,36 -88,42l176 234 -94 0 -170 -229 -10 0zm6 -212l0 147c2,0 4,0 6,0 2,1 4,1 6,1 2,0 3,0 5,0 2,0 4,0 7,0 2,0 5,0 7,0 3,0 6,0 8,0 21,-1 40,-5 57,-14 18,-8 27,-25 27,-52l0 -6c0,-35 -11,-57 -33,-64 -22,-8 -47,-12 -75,-12l-15 0z"/>
   <path class="fil2" d="M42 793l0 123 -42 0 0 -274 68 0c4,0 7,0 11,1 4,0 8,0 12,0 10,1 20,3 30,6 9,3 18,8 24,16 6,6 10,14 13,22 2,8 4,17 5,25 0,1 0,2 0,3 0,0 0,1 0,2 0,5 -1,10 -2,15 0,5 -1,9 -3,14 -7,21 -18,35 -35,40 -17,5 -35,7 -55,7 -2,0 -4,0 -6,0 -3,0 -5,0 -7,0 -2,0 -4,0 -7,0 -2,0 -4,0 -6,0zm2 -112l0 76c2,0 3,0 4,0 2,0 3,0 5,0 1,0 3,0 4,0 2,1 4,1 5,1 2,0 4,0 6,0 2,0 4,-1 5,-1 11,0 21,-3 30,-8 9,-4 14,-13 15,-26l0 -3c0,-16 -6,-26 -16,-31 -11,-5 -22,-8 -35,-8 -1,0 -3,0 -4,0 -2,0 -4,0 -5,0l-14 0zm402 153c-11,28 -30,50 -55,65 -26,15 -53,23 -81,23 -2,0 -4,0 -7,0 -2,0 -4,-1 -7,-1 -9,-1 -18,-2 -27,-5 -10,-2 -18,-6 -27,-10 -24,-13 -43,-31 -57,-54 -13,-23 -20,-48 -20,-74 0,-4 0,-8 0,-12 1,-4 2,-8 2,-12 2,-7 4,-15 6,-22 3,-7 6,-14 9,-20 13,-24 32,-43 55,-56 23,-13 48,-19 74,-19 4,0 9,0 14,0 4,1 9,1 13,2 10,2 19,5 28,8 9,3 18,8 26,13 20,13 36,31 47,53 12,22 17,44 17,68 0,9 0,18 -2,27 -2,9 -5,18 -8,26zm-135 47c28,0 52,-10 71,-30 19,-20 28,-44 28,-71 0,-28 -9,-52 -29,-72 -20,-21 -43,-31 -71,-31l-9 0c-26,3 -48,15 -65,35 -17,21 -25,44 -25,69 0,2 0,3 0,4 0,2 0,3 1,5 0,1 0,2 0,2 0,1 0,2 0,3 0,1 1,1 1,2 0,1 0,2 0,2 5,23 16,43 35,59 18,15 39,23 63,23zm240 -88l0 123 -42 0 0 -274 62 0c2,0 5,0 8,0 2,0 5,0 8,1 10,0 21,1 30,4 10,2 19,7 27,15 6,6 11,14 15,22 3,8 5,17 6,25 0,2 0,3 0,4 0,2 0,3 0,4 0,23 -5,40 -15,51 -10,12 -26,20 -47,23l94 125 -50 0 -91 -123 -5 0zm3 -112l0 78c1,0 2,0 3,0 1,0 2,0 3,0 1,0 2,0 3,1 1,0 2,0 3,0 2,0 3,0 5,0 1,0 2,0 4,0 11,-1 21,-3 30,-8 9,-4 14,-13 14,-27l0 -4c0,-19 -5,-30 -17,-34 -12,-4 -25,-6 -40,-6l-8 0zm406 28c-13,-10 -26,-18 -40,-24 -14,-5 -28,-8 -43,-8 -4,0 -8,0 -11,1 -4,0 -8,0 -12,1 -25,4 -44,16 -57,35 -14,19 -21,39 -22,61 0,1 0,2 0,2 0,1 0,2 0,3 0,1 0,1 0,2 0,1 0,2 0,3 2,20 8,39 20,57 11,17 28,29 50,36 2,0 4,1 7,1 2,1 5,1 7,2 3,0 5,0 7,1 3,0 5,0 7,0 16,0 32,-3 46,-10 15,-7 28,-15 41,-25l0 50c-9,6 -18,11 -28,15 -10,3 -20,6 -30,8 -4,0 -9,1 -14,1 -5,1 -9,1 -14,1 -35,0 -67,-11 -95,-34 -29,-23 -46,-54 -50,-95 0,-1 0,-2 0,-3 0,-1 0,-2 0,-4 0,-1 0,-2 0,-3 0,-1 0,-2 0,-3 0,-37 12,-68 36,-96 24,-27 54,-43 91,-47 1,0 2,0 3,0 1,0 2,0 2,0 3,0 5,0 8,0 2,0 5,0 7,0 15,0 30,2 44,7 14,5 28,12 42,20l-2 45zm62 207l0 -274 45 0 0 274 -45 0zm292 0l-30 -71 -108 0 -32 71 -46 0 131 -284 133 284 -48 0zm-84 -201c-1,5 -3,10 -4,16 -2,5 -4,10 -6,15l-28 62 76 0 -28 -62c-2,-4 -3,-8 -4,-12 -2,-4 -3,-9 -4,-13 0,-1 -1,-2 -1,-3 0,-1 -1,-2 -1,-3z"/>
  </g>
 </g>
</svg>
