<?xml version="1.0" encoding="UTF-8"?>
<!DOCTYPE svg PUBLIC "-//W3C//DTD SVG 1.1//EN" "http://www.w3.org/Graphics/SVG/1.1/DTD/svg11.dtd">
<!-- Creator: CorelDRAW X7 -->
<svg xmlns="http://www.w3.org/2000/svg" xml:space="preserve" width="163.189mm" height="29.0714mm" version="1.1" style="shape-rendering:geometricPrecision; text-rendering:geometricPrecision; image-rendering:optimizeQuality; fill-rule:evenodd; clip-rule:evenodd"
viewBox="0 0 3637 648"
 xmlns:xlink="http://www.w3.org/1999/xlink">
 <defs>
  <style type="text/css">
   <![CDATA[
    .fil3 {fill:#28AA14}
    .fil0 {fill:#B3B3B3}
    .fil2 {fill:#FF2828}
    .fil1 {fill:white}
   ]]>
  </style>
 </defs>
 <g id="Слой_x0020_1">
  <metadata id="CorelCorpID_0Corel-Layer"/>
  <g id="_758213536">
   <g>
    <path class="fil0" d="M43 162c90,-155 288,-208 443,-119 51,30 90,71 118,118l-283 163 283 163c-90,154 -287,207 -442,118 -155,-90 -208,-288 -119,-443zm551 328l-287 -166 287 -166c-28,-45 -66,-82 -112,-108 -72,-42 -159,-53 -240,-32 -81,22 -150,75 -192,148 -42,72 -53,159 -32,240 22,81 75,150 148,192 72,42 159,53 240,32 78,-21 145,-71 188,-140z"/>
    <path class="fil1" d="M594 490l-287 -166 287 -166c-28,-45 -66,-82 -112,-108 -72,-42 -159,-53 -240,-32 -81,22 -150,75 -192,148 -42,72 -53,159 -32,240 22,81 75,150 148,192 72,42 159,53 240,32 78,-21 145,-71 188,-140z"/>
    <path class="fil2" d="M538 129c12,13 23,27 32,43l-104 60c19,-33 42,-67 72,-103zm32 347c-62,101 -176,151 -287,135 65,-78 89,-153 118,-232l169 97z"/>
    <path class="fil3" d="M73 179c61,-106 180,-159 294,-141 -132,167 -101,303 -256,482 -84,-91 -103,-228 -38,-341z"/>
    <path class="fil0" d="M708 160c56,97 61,221 0,326 0,1 0,1 -1,2l-283 -164 284 -164zm-3 10l-266 154 266 154c53,-96 53,-212 0,-308z"/>
    <path class="fil1" d="M705 170l-266 154 266 154c53,-96 53,-212 0,-308z"/>
    <circle class="fil2" cx="636" cy="324" r="50"/>
   </g>
   <path class="fil2" d="M966 328l0 146 -49 0 0 -323 81 0c4,0 8,0 13,0 4,0 9,0 13,0 13,1 24,4 36,7 11,4 21,11 29,20 6,7 11,16 14,26 4,9 6,19 6,29 0,1 0,2 0,3 0,1 0,2 0,3 0,6 0,11 -1,17 -1,6 -2,12 -4,18 -8,25 -22,40 -42,46 -20,6 -41,9 -64,9 -2,0 -5,0 -8,0 -2,0 -5,0 -7,0 -3,0 -6,0 -9,0 -3,-1 -5,-1 -8,-1zm4 -132l0 90c1,0 3,0 4,0 2,1 4,1 5,1 3,0 4,0 6,0 2,0 4,0 6,0 2,0 4,0 6,0 3,0 5,0 7,0 13,-1 24,-4 35,-10 10,-5 16,-16 17,-31l0 -4c0,-18 -6,-30 -18,-36 -13,-6 -26,-9 -41,-10 -2,0 -4,0 -6,0 -2,0 -4,0 -5,0l-16 0zm257 133l0 145 -49 0 0 -323 73 0c3,0 7,0 10,0 3,0 6,0 10,0 12,1 24,2 35,5 12,3 22,9 31,18 8,8 14,16 18,26 4,10 7,20 7,30 1,2 1,3 1,5 0,1 0,3 0,5 0,26 -6,46 -18,60 -12,14 -31,23 -56,27l111 147 -59 0 -107 -145 -7 0zm4 -133l0 93c1,0 3,0 4,0 1,0 2,0 4,0 1,0 2,0 3,1 1,0 3,0 4,0 2,0 3,0 5,0 2,0 3,0 5,0 13,-1 25,-4 36,-9 11,-5 16,-16 17,-33l0 -4c0,-22 -7,-35 -21,-40 -14,-5 -30,-8 -47,-8l-10 0zm587 181c-14,34 -36,59 -66,77 -30,18 -62,27 -95,27 -3,0 -6,0 -8,0 -3,0 -6,0 -8,-1 -12,-1 -23,-3 -33,-6 -11,-3 -22,-7 -32,-12 -28,-15 -51,-36 -67,-64 -16,-27 -24,-56 -24,-86 0,-5 0,-10 1,-15 0,-5 1,-10 2,-15 2,-8 4,-16 7,-25 3,-8 7,-16 10,-24 16,-29 38,-51 65,-66 28,-15 57,-23 88,-23 5,0 10,0 16,1 6,0 11,1 16,2 11,2 22,5 33,9 11,4 21,10 30,16 24,15 43,36 56,62 14,26 21,53 21,81 0,11 -1,21 -4,32 -2,10 -5,20 -8,30zm-160 56c33,0 61,-12 83,-36 23,-24 34,-52 34,-84 0,-32 -11,-61 -34,-85 -24,-24 -52,-36 -84,-36l-11 0c-31,3 -56,17 -76,42 -21,24 -31,51 -31,81 0,2 0,3 1,5 0,2 0,4 0,5 0,1 0,2 1,3 0,1 0,2 0,3 0,1 0,2 1,3 0,1 0,2 0,2 5,28 19,51 41,69 22,19 47,28 75,28z"/>
   <path class="fil3" d="M1978 328l0 146 -49 0 0 -323 80 0c4,0 8,0 13,0 4,0 9,0 14,0 12,1 24,4 35,7 12,4 21,11 29,20 7,7 11,16 15,26 3,9 5,19 6,29 0,1 0,2 0,3 0,1 0,2 0,3 0,6 -1,11 -2,17 -1,6 -2,12 -4,18 -8,25 -22,40 -42,46 -20,6 -41,9 -64,9 -2,0 -5,0 -7,0 -3,0 -6,0 -8,0 -3,0 -6,0 -9,0 -2,-1 -5,-1 -7,-1zm3 -132l0 90c1,0 3,0 5,0 1,1 3,1 5,1 2,0 4,0 5,0 2,0 4,0 6,0 2,0 4,0 7,0 2,0 4,0 6,0 13,-1 24,-4 35,-10 11,-5 16,-16 17,-31l0 -4c0,-18 -6,-30 -18,-36 -13,-6 -26,-9 -41,-10 -2,0 -4,0 -6,0 -2,0 -3,0 -5,0l-16 0zm495 181c-14,34 -36,59 -66,77 -30,18 -62,27 -95,27 -3,0 -6,0 -8,0 -3,0 -5,0 -8,-1 -11,-1 -22,-3 -33,-6 -11,-3 -21,-7 -31,-12 -29,-15 -51,-36 -68,-64 -16,-27 -24,-56 -24,-86 0,-5 0,-10 1,-15 1,-5 1,-10 2,-15 2,-8 4,-16 7,-25 3,-8 7,-16 11,-24 15,-29 37,-51 65,-66 27,-15 56,-23 87,-23 5,0 11,0 16,1 6,0 11,1 16,2 12,2 22,5 33,9 11,4 21,10 31,16 24,15 42,36 56,62 13,26 20,53 20,81 0,11 -1,21 -3,32 -2,10 -5,20 -9,30zm-160 56c33,0 61,-12 84,-36 22,-24 33,-52 33,-84 0,-32 -11,-61 -34,-85 -23,-24 -51,-36 -84,-36l-11 0c-31,3 -56,17 -76,42 -20,24 -30,51 -30,81 0,2 0,3 0,5 0,2 0,4 1,5 0,1 0,2 0,3 0,1 0,2 0,3 0,1 1,2 1,3 0,1 0,2 0,2 6,28 19,51 41,69 22,19 47,28 75,28zm303 -104l0 145 -49 0 0 -323 73 0c3,0 6,0 9,0 3,0 7,0 10,0 12,1 24,2 36,5 12,3 22,9 31,18 8,8 14,16 18,26 4,10 6,20 7,30 1,2 1,3 1,5 0,1 0,3 0,5 0,26 -6,46 -19,60 -12,14 -30,23 -55,27l111 147 -59 0 -108 -145 -6 0zm4 -133l0 93c1,0 2,0 4,0 1,0 2,0 3,0 1,0 3,0 4,1 1,0 2,0 4,0 1,0 3,0 5,0 1,0 3,0 5,0 13,-1 24,-4 35,-9 11,-5 17,-16 17,-33l0 -4c0,-22 -7,-35 -20,-40 -14,-5 -30,-8 -47,-8l-10 0zm500 34c-15,-12 -31,-22 -47,-28 -16,-7 -34,-10 -52,-10 -4,0 -8,0 -13,1 -4,0 -9,1 -13,1 -30,5 -52,19 -68,42 -16,22 -24,46 -25,72 0,1 0,2 0,2 0,1 0,2 0,3 0,1 0,2 0,3 0,1 0,2 0,4 1,23 9,45 22,66 14,21 34,36 60,43 2,1 5,1 8,2 3,1 6,1 9,2 3,0 5,1 8,1 3,0 6,0 9,0 18,0 36,-4 54,-12 17,-8 33,-18 48,-29l0 59c-11,7 -22,13 -33,17 -12,4 -24,8 -36,10 -5,0 -11,1 -16,2 -6,0 -11,0 -16,0 -42,0 -80,-13 -114,-40 -34,-27 -53,-64 -58,-112 0,-1 0,-2 0,-4 0,-1 0,-3 0,-4 0,-1 0,-2 0,-4 0,-1 0,-2 0,-4 0,-43 14,-80 42,-112 28,-33 64,-51 108,-56 1,0 2,0 3,0 1,0 2,0 3,0 3,-1 6,-1 9,-1 3,0 6,0 8,0 19,0 36,3 53,9 17,5 33,14 49,24l-2 53zm93 244l0 -323 53 0 0 323 -53 0zm365 0l-36 -83 -127 0 -37 83 -56 0 156 -336 156 336 -56 0zm-99 -237c-2,6 -3,12 -5,18 -2,7 -4,13 -7,19l-33 73 90 0 -33 -73c-2,-5 -4,-10 -6,-15 -1,-5 -3,-10 -4,-15 0,-1 -1,-2 -1,-4 -1,-1 -1,-2 -1,-3z"/>
  </g>
 </g>
</svg>
