<svg xmlns="http://www.w3.org/2000/svg" xmlns:xlink="http://www.w3.org/1999/xlink" width="58" height="43" viewBox="0 0 58 43"><defs><path id="nx5oa" d="M430.84 4714a7.12 7.12 0 1 1-11.67 5.3 9.24 9.24 0 0 0 0-10.6 7.13 7.13 0 0 1 4.58-1.65c3.91 0 7.09 3.12 7.09 6.95zm14.17-17.54v35.09a2.48 2.48 0 0 1-2.5 2.45h-50c-1.39 0-2.5-1.1-2.5-2.45v-35.09a2.48 2.48 0 0 1 2.5-2.46h50c1.38 0 2.5 1.1 2.5 2.46zM433.34 4714c0-5.19-4.3-9.41-9.59-9.41-2.38 0-4.57.86-6.25 2.29a9.64 9.64 0 0 0-6.25-2.3 9.51 9.51 0 0 0-9.58 9.42c0 5.2 4.3 9.42 9.58 9.42 2.4 0 4.58-.86 6.25-2.29a9.64 9.64 0 0 0 6.25 2.29 9.51 9.51 0 0 0 9.59-9.42z"/></defs><g><g transform="translate(-389 -4693)"><use xlink:href="#nx5oa"/></g></g></svg>