<svg xmlns="http://www.w3.org/2000/svg" xmlns:xlink="http://www.w3.org/1999/xlink" preserveAspectRatio="xMidYMid" width="55" height="40" viewBox="0 0 55 40">
  <defs>
    
  </defs>
  <path d="M52.505,40.004 L2.505,40.004 C1.124,40.004 0.005,38.905 0.005,37.548 L0.005,2.460 C0.005,1.104 1.124,0.004 2.505,0.004 L52.505,0.004 C53.886,0.004 55.005,1.104 55.005,2.460 L55.005,37.548 C55.005,38.905 53.886,40.004 52.505,40.004 ZM33.755,10.589 C31.368,10.589 29.184,11.453 27.505,12.876 C25.826,11.453 23.642,10.589 21.255,10.589 C15.971,10.589 11.672,14.813 11.672,20.004 C11.672,25.195 15.971,29.420 21.255,29.420 C23.642,29.420 25.826,28.556 27.505,27.133 C29.184,28.556 31.368,29.420 33.755,29.420 C39.039,29.420 43.338,25.195 43.338,20.004 C43.338,14.813 39.039,10.589 33.755,10.589 ZM33.755,26.963 C32.008,26.963 30.408,26.338 29.171,25.303 C30.222,23.793 30.838,21.968 30.838,20.004 C30.838,18.041 30.222,16.215 29.171,14.705 C30.408,13.671 32.008,13.045 33.755,13.045 C37.661,13.045 40.838,16.167 40.838,20.004 C40.838,23.841 37.661,26.963 33.755,26.963 Z" class="cls-1"/>
</svg>
