<svg xmlns="http://www.w3.org/2000/svg" xmlns:xlink="http://www.w3.org/1999/xlink" preserveAspectRatio="xMidYMid" width="50" height="39" viewBox="0 0 50 39">
  <defs>
    
  </defs>
  <path d="M47.070,30.022 L47.070,28.526 C47.070,22.505 44.774,16.844 40.606,12.586 C36.785,8.683 31.808,6.390 26.465,6.034 L26.465,2.992 L29.394,2.992 L29.394,-0.001 L20.605,-0.001 L20.605,2.992 L23.535,2.992 L23.535,6.034 C18.191,6.390 13.215,8.683 9.394,12.586 C5.225,16.844 2.930,22.505 2.930,28.526 L2.930,30.022 L-0.000,30.022 L-0.000,33.014 L3.153,33.014 L4.130,39.000 L45.870,39.000 L46.846,33.014 L50.000,33.014 L50.000,30.022 L47.070,30.022 ZM43.388,36.007 L6.612,36.007 L6.124,33.014 L43.876,33.014 L43.388,36.007 ZM44.140,30.022 L5.859,30.022 L5.859,28.526 C5.859,17.747 14.446,8.976 25.000,8.976 C35.554,8.976 44.140,17.747 44.140,28.526 L44.140,30.022 Z" class="cls-1"/>
</svg>
