<svg xmlns="http://www.w3.org/2000/svg" xmlns:xlink="http://www.w3.org/1999/xlink" preserveAspectRatio="xMidYMid" width="20" height="10" viewBox="0 0 20 10">
  <defs>
    
  </defs>
  <path d="M18.305,9.988 L16.689,9.988 L16.132,5.692 C16.004,4.684 15.898,3.753 15.820,2.613 L15.798,2.613 C15.680,3.739 15.572,4.684 15.416,5.692 L14.787,9.988 L13.153,9.988 L11.582,0.005 L13.179,0.005 L13.679,4.123 C13.823,5.311 13.963,6.595 14.071,7.602 L14.091,7.602 C14.199,6.522 14.355,5.323 14.523,4.093 L15.080,0.005 L16.664,0.005 L17.193,4.211 C17.343,5.385 17.449,6.449 17.549,7.559 L17.565,7.559 C17.665,6.447 17.813,5.276 17.949,4.093 L18.494,0.005 L20.011,0.005 L18.305,9.988 ZM6.777,0.008 L10.853,0.008 L10.853,1.856 L8.275,1.856 L8.275,3.933 L10.705,3.933 L10.705,5.769 L8.275,5.769 L8.275,8.137 L10.990,8.137 L10.990,9.988 L6.777,9.988 L6.777,0.008 ZM2.502,6.144 C2.109,5.075 1.677,3.786 1.355,2.616 L1.327,2.628 C1.366,3.948 1.384,5.354 1.384,6.982 L1.384,9.988 L0.013,9.988 L0.013,0.008 L1.757,0.008 L3.128,3.665 C3.521,4.716 3.912,5.964 4.205,7.085 L4.236,7.085 C4.137,5.769 4.109,4.418 4.109,2.926 L4.111,2.926 L4.111,0.008 L5.482,0.008 L5.482,9.988 L3.912,9.988 L2.502,6.144 Z" class="cls-1"/>
</svg>
