<svg xmlns="http://www.w3.org/2000/svg" xmlns:xlink="http://www.w3.org/1999/xlink" preserveAspectRatio="xMidYMid" width="17.97" height="19.969" viewBox="0 0 17.97 19.969">
  <defs>
    
  </defs>
  <path d="M17.020,18.290 C16.393,18.798 15.550,19.052 14.492,19.052 C12.197,19.052 11.049,17.995 11.049,15.879 L11.049,12.313 C11.049,11.214 11.355,10.411 11.967,9.902 C12.579,9.394 13.422,9.140 14.495,9.140 C15.568,9.140 16.414,9.394 17.032,9.902 C17.651,10.411 17.960,11.214 17.960,12.313 L17.960,15.879 C17.960,16.978 17.647,17.782 17.020,18.290 ZM15.911,12.313 C15.911,11.427 15.438,10.984 14.492,10.984 C13.562,10.984 13.098,11.427 13.098,12.313 L13.098,15.879 C13.098,16.765 13.562,17.208 14.492,17.208 C15.438,17.208 15.911,16.765 15.911,15.879 L15.911,12.313 ZM5.656,19.421 C5.509,19.782 5.192,19.962 4.703,19.962 C4.371,19.962 4.093,19.852 3.869,19.630 C3.645,19.409 3.533,19.159 3.533,18.880 C3.533,18.766 3.565,18.626 3.631,18.462 L12.418,0.531 C12.597,0.186 12.890,0.014 13.297,0.014 C13.612,0.014 13.899,0.121 14.156,0.334 C14.413,0.547 14.542,0.810 14.542,1.121 C14.542,1.285 14.509,1.433 14.444,1.563 L5.656,19.421 ZM5.999,10.148 C5.380,10.657 4.534,10.911 3.461,10.911 C2.388,10.911 1.546,10.657 0.933,10.148 C0.321,9.640 0.015,8.837 0.015,7.738 L0.015,4.171 C0.015,3.073 0.321,2.269 0.933,1.761 C1.546,1.252 2.388,0.998 3.461,0.998 C4.534,0.998 5.380,1.252 5.999,1.761 C6.617,2.269 6.927,3.073 6.927,4.171 L6.927,7.738 C6.927,8.837 6.617,9.640 5.999,10.148 ZM4.878,4.171 C4.878,3.285 4.405,2.843 3.458,2.843 C2.529,2.843 2.064,3.285 2.064,4.171 L2.064,7.738 C2.064,8.623 2.529,9.066 3.458,9.066 C4.405,9.066 4.878,8.623 4.878,7.738 L4.878,4.171 Z" class="cls-1"/>
</svg>
