<svg xmlns="http://www.w3.org/2000/svg" xmlns:xlink="http://www.w3.org/1999/xlink" preserveAspectRatio="xMidYMid" width="31" height="40" viewBox="0 0 31 40">
  <defs>
    
  </defs>
  <path d="M31.000,38.982 L31.000,33.373 C31.000,26.432 26.489,20.533 20.281,18.498 C23.266,16.802 25.292,13.576 25.292,9.878 C25.292,4.434 20.896,-0.000 15.500,-0.000 C10.104,-0.000 5.708,4.434 5.708,9.878 C5.708,13.576 7.734,16.802 10.719,18.498 C4.502,20.533 -0.000,26.432 -0.000,33.373 L-0.000,38.982 C-0.000,39.545 0.451,40.000 1.009,40.000 L30.008,40.000 C30.549,39.992 31.000,39.545 31.000,38.982 ZM7.709,9.878 C7.709,5.551 11.203,2.027 15.492,2.027 C19.781,2.027 23.275,5.551 23.275,9.878 C23.275,14.205 19.781,17.729 15.492,17.729 C11.203,17.729 7.709,14.205 7.709,9.878 ZM28.991,37.965 L1.993,37.965 L1.993,33.365 C1.993,25.861 8.045,19.747 15.492,19.747 C22.938,19.747 28.991,25.853 28.991,33.365 L28.991,37.965 Z" class="cls-1"/>
</svg>
