<svg xmlns="http://www.w3.org/2000/svg" xmlns:xlink="http://www.w3.org/1999/xlink" preserveAspectRatio="xMidYMid" width="25.97" height="15" viewBox="0 0 25.97 15">
  <defs>
    
  </defs>
  <path d="M25.850,13.543 C25.819,13.475 25.790,13.418 25.762,13.372 C25.312,12.552 24.450,11.544 23.179,10.350 L23.152,10.322 L23.138,10.309 L23.125,10.295 L23.111,10.295 C22.534,9.739 22.169,9.365 22.016,9.173 C21.736,8.809 21.673,8.440 21.826,8.066 C21.934,7.783 22.340,7.186 23.044,6.274 C23.413,5.791 23.706,5.404 23.923,5.112 C25.483,3.015 26.159,1.675 25.952,1.092 L25.871,0.955 C25.817,0.873 25.677,0.798 25.452,0.730 C25.226,0.661 24.938,0.649 24.586,0.695 L20.691,0.722 C20.628,0.700 20.537,0.702 20.420,0.730 C20.303,0.757 20.244,0.770 20.244,0.770 L20.176,0.805 L20.123,0.846 C20.078,0.873 20.028,0.921 19.974,0.989 C19.920,1.057 19.875,1.137 19.839,1.228 C19.415,2.332 18.933,3.358 18.392,4.305 C18.058,4.871 17.752,5.361 17.472,5.776 C17.192,6.191 16.958,6.496 16.769,6.692 C16.579,6.888 16.408,7.045 16.255,7.164 C16.101,7.282 15.984,7.332 15.903,7.314 C15.822,7.296 15.745,7.278 15.673,7.260 C15.547,7.177 15.445,7.066 15.369,6.925 C15.292,6.783 15.240,6.605 15.213,6.391 C15.186,6.176 15.170,5.992 15.166,5.837 C15.161,5.682 15.163,5.463 15.173,5.181 C15.182,4.898 15.186,4.706 15.186,4.606 C15.186,4.260 15.193,3.884 15.206,3.478 C15.220,3.072 15.231,2.750 15.240,2.514 C15.249,2.277 15.254,2.026 15.254,1.762 C15.254,1.498 15.238,1.290 15.206,1.139 C15.175,0.989 15.127,0.843 15.065,0.702 C15.001,0.560 14.909,0.451 14.787,0.374 C14.666,0.296 14.514,0.234 14.334,0.189 C13.856,0.080 13.248,0.020 12.508,0.011 C10.831,-0.007 9.753,0.103 9.276,0.339 C9.086,0.439 8.915,0.576 8.762,0.749 C8.599,0.950 8.577,1.060 8.694,1.078 C9.235,1.160 9.618,1.356 9.844,1.666 L9.925,1.830 C9.988,1.948 10.051,2.158 10.114,2.459 C10.177,2.760 10.218,3.093 10.236,3.457 C10.281,4.123 10.281,4.693 10.236,5.167 C10.191,5.641 10.148,6.010 10.107,6.274 C10.067,6.539 10.006,6.753 9.925,6.917 C9.844,7.082 9.789,7.181 9.762,7.218 C9.735,7.254 9.713,7.278 9.695,7.286 C9.578,7.332 9.456,7.355 9.330,7.355 C9.203,7.355 9.050,7.291 8.870,7.163 C8.689,7.036 8.502,6.860 8.308,6.636 C8.115,6.413 7.896,6.101 7.652,5.700 C7.409,5.299 7.156,4.825 6.895,4.278 L6.679,3.881 C6.543,3.626 6.359,3.254 6.124,2.767 C5.890,2.279 5.682,1.807 5.502,1.351 C5.430,1.160 5.322,1.014 5.177,0.914 L5.110,0.872 C5.065,0.836 4.993,0.797 4.893,0.756 C4.794,0.715 4.691,0.685 4.582,0.667 L0.876,0.695 C0.498,0.695 0.241,0.781 0.105,0.955 L0.051,1.037 C0.024,1.082 0.011,1.155 0.011,1.255 C0.011,1.355 0.038,1.479 0.092,1.625 C0.633,2.910 1.221,4.150 1.857,5.344 C2.492,6.539 3.045,7.500 3.514,8.230 C3.982,8.959 4.460,9.647 4.947,10.294 C5.434,10.942 5.757,11.357 5.914,11.539 C6.072,11.722 6.196,11.858 6.286,11.950 L6.624,12.278 C6.841,12.496 7.159,12.758 7.578,13.064 C7.997,13.369 8.462,13.670 8.971,13.967 C9.481,14.263 10.073,14.505 10.750,14.691 C11.426,14.879 12.084,14.954 12.724,14.917 L14.280,14.917 C14.595,14.890 14.834,14.789 14.997,14.616 L15.051,14.548 C15.087,14.493 15.121,14.409 15.152,14.295 C15.184,14.181 15.199,14.056 15.199,13.919 C15.190,13.527 15.220,13.174 15.287,12.859 C15.354,12.545 15.431,12.308 15.517,12.148 C15.603,11.988 15.700,11.854 15.808,11.745 C15.916,11.635 15.993,11.569 16.038,11.547 C16.083,11.524 16.119,11.508 16.146,11.499 C16.363,11.426 16.617,11.496 16.910,11.711 C17.204,11.925 17.478,12.189 17.736,12.504 C17.993,12.819 18.301,13.172 18.662,13.564 C19.023,13.956 19.338,14.247 19.609,14.439 L19.879,14.603 C20.060,14.713 20.294,14.813 20.583,14.904 C20.871,14.995 21.123,15.018 21.340,14.972 L24.802,14.918 C25.145,14.918 25.411,14.861 25.600,14.747 C25.790,14.633 25.902,14.507 25.939,14.371 C25.975,14.234 25.977,14.079 25.945,13.905 C25.913,13.732 25.882,13.612 25.850,13.543 Z" class="cls-1"/>
</svg>
