<svg xmlns="http://www.w3.org/2000/svg" xmlns:xlink="http://www.w3.org/1999/xlink" preserveAspectRatio="xMidYMid" width="20" height="20" viewBox="0 0 20 20">
  <defs>
    
  </defs>
  <path d="M14.480,20.000 L5.519,20.000 C2.476,20.000 -0.000,17.523 -0.000,14.480 L-0.000,5.518 C-0.000,2.475 2.476,-0.001 5.519,-0.001 L14.480,-0.001 C17.524,-0.001 20.000,2.475 20.000,5.518 L20.000,14.480 C20.000,17.523 17.524,20.000 14.480,20.000 ZM18.225,14.480 L18.225,5.518 C18.225,3.454 16.545,1.774 14.480,1.774 L5.519,1.774 C3.454,1.774 1.774,3.454 1.774,5.518 L1.774,14.480 C1.774,16.545 3.454,18.225 5.519,18.225 L14.480,18.225 C16.545,18.225 18.225,16.545 18.225,14.480 L18.225,14.480 ZM15.369,5.944 C15.028,5.944 14.692,5.804 14.450,5.563 C14.208,5.321 14.068,4.985 14.068,4.643 C14.068,4.300 14.208,3.963 14.450,3.722 C14.692,3.480 15.028,3.341 15.369,3.341 C15.713,3.341 16.049,3.480 16.290,3.722 C16.532,3.963 16.671,4.300 16.671,4.643 C16.671,4.984 16.532,5.321 16.290,5.563 C16.047,5.804 15.713,5.944 15.369,5.944 ZM10.000,15.153 C7.158,15.153 4.846,12.841 4.846,9.999 C4.846,7.158 7.158,4.846 10.000,4.846 C12.841,4.846 15.153,7.158 15.153,9.999 C15.153,12.841 12.841,15.153 10.000,15.153 ZM10.000,6.620 C8.137,6.620 6.621,8.136 6.621,9.999 C6.621,11.863 8.137,13.378 10.000,13.378 C11.863,13.378 13.379,11.863 13.379,9.999 C13.379,8.136 11.863,6.620 10.000,6.620 Z" class="cls-1"/>
</svg>
