<svg xmlns="http://www.w3.org/2000/svg" xmlns:xlink="http://www.w3.org/1999/xlink" preserveAspectRatio="xMidYMid" width="65" height="40" viewBox="0 0 65 40">
  <defs>
    
  </defs>
  <path d="M-0.007,39.989 L-0.007,0.006 L65.005,0.006 L65.005,39.989 L-0.007,39.989 ZM23.480,13.329 L20.570,19.515 C20.159,20.392 19.804,21.188 19.498,21.916 C19.442,21.156 19.381,20.417 19.307,19.664 L18.713,13.329 L12.840,13.329 L18.950,18.186 L15.320,15.895 L16.816,26.666 L20.493,26.666 L27.341,13.329 L23.480,13.329 ZM29.043,13.329 L26.521,26.666 L29.980,26.666 L32.499,13.329 L29.043,13.329 ZM41.848,13.809 C41.023,13.352 39.998,13.126 38.716,13.126 C35.583,13.126 33.393,14.965 33.393,17.595 C33.393,19.504 34.891,20.564 36.202,21.276 C37.438,21.916 37.679,22.284 37.679,22.701 C37.679,23.500 36.815,23.787 36.080,23.787 C35.117,23.787 34.115,23.513 33.330,23.040 L32.939,22.805 L31.771,25.700 L32.009,25.881 C32.818,26.491 34.242,26.856 35.821,26.856 C39.092,26.856 41.288,25.000 41.288,22.239 C41.288,20.729 40.409,19.530 38.609,18.580 C37.598,18.013 36.985,17.631 36.985,17.150 C36.985,16.701 37.459,16.215 38.571,16.215 C39.653,16.215 40.488,16.639 40.642,16.726 L41.036,16.942 L42.140,13.970 L41.848,13.809 ZM51.396,13.329 L47.379,13.329 L40.919,26.666 L44.622,26.666 L46.108,23.409 L49.103,23.409 L49.361,26.666 L52.951,26.666 L51.396,13.329 ZM48.231,18.428 C48.370,18.127 48.512,17.787 48.650,17.431 C48.676,17.748 48.700,18.044 48.717,18.302 L48.924,20.582 L47.244,20.582 L48.231,18.428 Z" class="cls-1"/>
</svg>
