<?xml version="1.0" encoding="UTF-8"?>
<!DOCTYPE svg PUBLIC "-//W3C//DTD SVG 1.1//EN" "http://www.w3.org/Graphics/SVG/1.1/DTD/svg11.dtd">
<!-- Creator: CorelDRAW X7 -->
<svg xmlns="http://www.w3.org/2000/svg" xml:space="preserve" width="64.5437mm" height="35.8084mm" version="1.1" viewBox="0 0 3242 1798" xmlns:xlink="http://www.w3.org/1999/xlink">
 <defs>
  
 </defs>
 <g id="&#x421;&#x43B;&#x43E;&#x439;_x0020_1">
  <metadata id="CorelCorpID_0Corel-Layer"/>
  <path class="fil0" d="M48 151c323,-107 681,-186 1022,-135 118,17 229,49 340,94 97,40 191,87 285,135 186,93 352,166 562,189 302,34 621,-45 904,-145l47 -16 34 94 -48 17c-298,105 -630,185 -948,150 -223,-24 -398,-100 -596,-200 -92,-45 -183,-92 -278,-131 -103,-41 -207,-72 -317,-88 -324,-48 -669,30 -976,131l-47 16 -32 -95 48 -16zm0 1256c323,-107 681,-186 1022,-135 118,17 229,49 340,94 97,40 191,87 285,135 186,93 352,166 562,189 302,34 621,-45 904,-145l47 -16 34 94 -48 17c-298,105 -630,185 -948,150 -223,-25 -398,-101 -596,-200 -92,-46 -183,-92 -278,-131 -103,-42 -207,-72 -317,-88 -324,-48 -669,30 -976,131l-47 16 -32 -96 48 -15zm0 -628c323,-107 681,-186 1022,-135 118,17 229,49 340,94 97,40 191,87 285,135 186,93 352,166 562,189 302,34 621,-45 904,-145l47 -16 34 94 -48 17c-298,105 -630,185 -948,150 -223,-24 -398,-101 -596,-200 -92,-46 -183,-92 -278,-131 -103,-41 -207,-72 -317,-88 -324,-48 -669,30 -976,131l-47 16 -32 -95 48 -16z"/>
 </g>
</svg>
