<svg xmlns="http://www.w3.org/2000/svg" xmlns:xlink="http://www.w3.org/1999/xlink" width="69" height="42" viewBox="0 0 69 42"><defs><path id="75spa" d="M520 4694V4734h-65V4694zm-44.5 26.67l6.84-13.34h-3.86l-2.91 6.18c-.41.88-.77 1.68-1.07 2.4a92 92 0 0 0-.2-2.25l-.59-6.33h-5.87l6.11 4.86-3.63-2.3 1.5 10.78zm9.48 0l2.52-13.34h-3.46l-2.52 13.34zm11.3-4.43c0-1.51-.87-2.71-2.67-3.66-1.01-.57-1.62-.95-1.62-1.43 0-.45.47-.94 1.58-.94 1.08 0 1.92.43 2.07.52l.4.21 1.1-2.97-.3-.16a6.36 6.36 0 0 0-3.12-.68c-3.14 0-5.33 1.83-5.33 4.47 0 1.9 1.5 2.96 2.81 3.68 1.24.64 1.48 1 1.48 1.42 0 .8-.86 1.09-1.6 1.09-.96 0-1.96-.28-2.75-.75l-.4-.23-1.16 2.89.24.18c.8.61 2.23.98 3.81.98 3.27 0 5.47-1.86 5.47-4.62zm11.67 4.43l-1.55-13.34h-4.02l-6.46 13.34h3.7l1.49-3.26h3l.25 3.26zm-4.23-8.37l.2 2.28h-1.68l1-2.15.41-1 .07.87z"/></defs><g><g transform="translate(-453 -4693)"><use fill="#fff" xlink:href="#75spa"/></g></g></svg>